<?xml version="1.0" standalone="no"?>
<!DOCTYPE svg PUBLIC "-//W3C//DTD SVG 1.1//EN" "http://www.w3.org/Graphics/SVG/1.1/DTD/svg11.dtd" >
<svg>
<metadata>
Created by FontForge 20090914 at Thu Feb 23 16:03:41 2012
 By ffonts
(C) 1999 Ray Larabie - rlarabie@hotmail.com
</metadata>
<defs>
<font id="Zrnic" horiz-adv-x="249" >
  <font-face 
    font-family="Zrnic"
    font-weight="400"
    font-stretch="normal"
    units-per-em="1000"
    panose-1="0 0 4 0 0 0 0 0 0 0"
    ascent="800"
    descent="-200"
    x-height="523"
    cap-height="661"
    bbox="-18 -229 707 804"
    underline-thickness="20"
    underline-position="-123"
    unicode-range="U+0020-U+2026"
  />
<missing-glyph horiz-adv-x="500" 
d="M63 0v800h375v-800h-375zM125 63h250v675h-250v-675z" />
    <glyph glyph-name=".notdef" horiz-adv-x="500" 
d="M63 0v800h375v-800h-375zM125 63h250v675h-250v-675z" />
    <glyph glyph-name=".null" horiz-adv-x="0" 
 />
    <glyph glyph-name="nonmarkingreturn" horiz-adv-x="223" 
 />
    <glyph glyph-name="space" unicode=" " horiz-adv-x="223" 
 />
    <glyph glyph-name="exclam" unicode="!" horiz-adv-x="210" 
d="M161 185h-100v478h100v-478zM161 1h-100v73h100v-73z" />
    <glyph glyph-name="quotedbl" unicode="&#x22;" horiz-adv-x="275" 
d="M244 731l-27 -200h-56l-5 200h88zM104 731l-27 -200h-57l-5 200h89z" />
    <glyph glyph-name="numbersign" unicode="#" horiz-adv-x="390" 
d="M377 416h-83v-91h-58v91h-57v-91h-59v91h-90v58h90v57h-90v59h90v81h59v-81h57v81h58v-81h83v-59h-83v-57h83v-58zM236 474v57h-57v-57h57z" />
    <glyph glyph-name="dollar" unicode="$" horiz-adv-x="389" 
d="M366 366q0 -46 -17 -80q-21 -43 -62 -43h-74v-55h-32v55h-123v55h123v125h-69q-43 0 -69 46q-21 39 -21 86q0 50 23 82q26 37 73 37h63v44h32v-44h90v-56h-90v-117h74q40 0 62 -50q17 -39 17 -85zM181 501v117h-28q-20 0 -30 -18.5t-10 -39.5q0 -22 9 -39q11 -20 31 -20
h28zM280 360q0 24 -12 43.5t-34 19.5h-21v-125h21q22 0 35 21q11 17 11 41z" />
    <glyph glyph-name="percent" unicode="%" horiz-adv-x="466" 
d="M212 542v-109q0 -57 -11 -81q-17 -38 -67 -38q-57 0 -76 31q-14 23 -14 85l1 112q0 64 14 88q19 32 79 32q47 0 64 -40q10 -25 10 -80zM332 661l-145 -661h-37l146 661h36zM442 228v-109q0 -57 -11 -81q-17 -38 -67 -38q-57 0 -76 31q-14 23 -14 85v112q0 64 15 88
q19 32 79 32q47 0 64 -40q10 -25 10 -80zM173 464q0 142 -35 142h-12q-42 0 -42 -98q0 -140 34 -140h13q42 0 42 96zM403 150q0 142 -35 142h-12q-42 0 -42 -98q0 -140 34 -140h13q42 0 42 96z" />
    <glyph glyph-name="ampersand" unicode="&#x26;" horiz-adv-x="412" 
d="M394 -1h-265q-59 0 -89 73q-23 56 -23 125q0 111 50 165q-50 53 -50 142q0 60 25 104q31 53 87 53h97v-56h-43q-37 0 -56 -38q-16 -30 -16 -71q0 -40 15 -70q20 -37 57 -37h176v-55h-59v-280h94v-55zM235 54v280h-52q-39 0 -58 -53q-14 -38 -14 -86t14 -87q19 -54 58 -54
h52z" />
    <glyph glyph-name="quotesingle" unicode="'" horiz-adv-x="121" 
d="M109 731l-27 -200h-56l-5 200h88z" />
    <glyph glyph-name="parenleft" unicode="(" horiz-adv-x="325" 
d="M325 -208h-51q-82 0 -134 38q-60 43 -60 121v660q0 72 53.5 121.5t126.5 49.5h65v-56h-77q-36 0 -62 -40q-23 -36 -23 -74v-654q0 -77 48 -98q27 -12 114 -12v-56z" />
    <glyph glyph-name="parenright" unicode=")" horiz-adv-x="350" 
d="M307 -49q0 -78 -60 -121q-53 -38 -134 -38h-51v56h24q73 0 101 18q36 23 36 92v654q0 38 -23 74q-25 40 -62 40h-76v56h65q73 0 126.5 -49.5t53.5 -121.5v-660z" />
    <glyph glyph-name="asterisk" unicode="*" horiz-adv-x="406" 
d="M379 358q0 -73 -52.5 -125.5t-125.5 -52.5q-74 0 -126.5 52.5t-52.5 125.5q0 74 52.5 126t126.5 52q73 0 125.5 -52t52.5 -126zM323 280l-82 82l78 79l-40 40l-78 -79l-75 75l-40 -40l75 -75l-79 -78l40 -40l79 78l82 -82z" />
    <glyph glyph-name="plus" unicode="+" horiz-adv-x="406" 
d="M379 358q0 -73 -52.5 -125.5t-125.5 -52.5q-74 0 -126.5 52.5t-52.5 125.5q0 74 52.5 126t126.5 52q73 0 125.5 -52t52.5 -126zM343 333v56h-111v106h-57v-106h-111v-56h111v-117h57v117h111z" />
    <glyph glyph-name="comma" unicode="," horiz-adv-x="167" 
d="M138 51l-28 -199h-56l-5 199h89z" />
    <glyph glyph-name="hyphen" unicode="-" horiz-adv-x="266" 
d="M239 277h-190v57h190v-57z" />
    <glyph glyph-name="hyphen" unicode="&#x2010;" horiz-adv-x="266" 
d="M239 277h-190v57h190v-57z" />
    <glyph glyph-name="period" unicode="." horiz-adv-x="182" 
d="M153 1h-99v73h99v-73z" />
    <glyph glyph-name="slash" unicode="/" horiz-adv-x="340" 
d="M323 661l-224 -661h-56l226 661h54z" />
    <glyph glyph-name="zero" unicode="0" horiz-adv-x="438" 
d="M399 171q0 -63 -25 -111q-31 -61 -87 -61h-143q-57 0 -88 61q-24 48 -24 111v315q0 63 24 113q31 62 88 62h143q57 0 87 -62q25 -50 25 -113v-315zM305 171v315q0 42 -15 76q-20 43 -57 43h-35q-37 0 -57 -43q-15 -34 -15 -76v-315q0 -41 15 -74q20 -43 57 -43h35
q37 0 56 43q16 33 16 74z" />
    <glyph glyph-name="one" unicode="1" horiz-adv-x="238" 
d="M189 0h-100v606h-53v56h153v-662z" />
    <glyph glyph-name="two" unicode="2" horiz-adv-x="486" 
d="M465 483q0 -64 -25 -112q-30 -60 -88 -60h-152q-36 0 -52 -43q-13 -31 -13 -75v-138h314v-55h-383q-21 0 -24.5 3.5t-3.5 24.5v165q0 64 22 112q30 61 87 61h151q38 0 58 43q15 33 15 76t-15 76q-20 44 -58 44h-199v56h253q57 0 88 -64q25 -50 25 -114z" />
    <glyph glyph-name="three" unicode="3" horiz-adv-x="406" 
d="M367 174q0 -64 -24 -113q-31 -62 -89 -62h-226v55h173q37 0 57 46q15 34 15 78q0 43 -15 77q-19 44 -57 44h-91v56h91q38 0 57 45q15 35 15 79t-15 79q-19 47 -57 47h-173v56h226q58 0 89 -64q24 -50 24 -115q0 -102 -51 -155q51 -54 51 -153z" />
    <glyph glyph-name="four" unicode="4" horiz-adv-x="449" 
d="M424 125h-59v-125h-89v125l-248 -1v74l204 463h133v-484h59v-52zM276 177v371l-166 -371h166z" />
    <glyph glyph-name="five" unicode="5" horiz-adv-x="446" 
d="M425 193q0 -68 -25 -123q-32 -70 -91 -70h-272v55h218q40 0 60 51q16 39 16 85q0 43 -14 76q-18 44 -55 44h-241v350h354v-56h-260v-239h201q57 0 86 -61q23 -48 23 -112z" />
    <glyph glyph-name="six" unicode="6" horiz-adv-x="483" 
d="M450 153q0 -80 -20 -112q-26 -41 -101 -41h-157q-77 0 -103 41q-20 31 -20 112v358q0 81 20 112q26 41 103 41h202v-55h-161q-41 0 -55 -36q-9 -22 -9 -70v-341q0 -49 9 -71q14 -36 55 -36h75q62 0 62 89v122q0 74 -41 74h-109v55h156q49 0 74 -40q20 -33 20 -85v-117z
" />
    <glyph glyph-name="seven" unicode="7" horiz-adv-x="410" 
d="M389 661l-201 -661h-103l195 609h-258v52h367z" />
    <glyph glyph-name="eight" unicode="8" horiz-adv-x="479" 
d="M440 174q0 -64 -24 -113q-31 -62 -89 -62h-179q-57 0 -88 62q-24 49 -24 113q0 99 50 153q-50 53 -50 155q0 65 24 115q30 64 88 64h179q58 0 89 -64q24 -50 24 -115q0 -101 -51 -155q51 -54 51 -153zM346 479q0 44 -15 79q-19 47 -57 47h-72q-38 0 -58 -47
q-14 -35 -14 -79t14 -79q20 -45 58 -45h72q38 0 57 45q15 35 15 79zM346 178q0 43 -15 77q-19 44 -57 44h-72q-38 0 -57 -44q-15 -34 -15 -77q0 -44 15 -78q19 -46 57 -46h72q37 0 57 46q15 34 15 78z" />
    <glyph glyph-name="nine" unicode="9" horiz-adv-x="478" 
d="M431 153q0 -81 -20 -112q-27 -41 -103 -41h-202v55h161q40 0 54 36q9 22 9 70v341q0 49 -8 71q-14 36 -55 36h-75q-63 0 -63 -89v-24q-1 -21 -1 -36q0 -101 43 -101h108v-55h-156q-49 0 -74 40q-20 33 -20 85v82q0 81 20 112q26 41 102 41h157q76 0 103 -41
q20 -31 20 -112v-358z" />
    <glyph glyph-name="colon" unicode=":" horiz-adv-x="175" 
d="M146 330q0 -24 -10 -41q-12 -22 -34 -22q-21 0 -33 22q-10 17 -10 41q0 23 11 42.5t32 19.5q22 0 33 -19.5t11 -42.5zM146 26q0 -23 -10 -41q-12 -22 -34 -22q-21 0 -33 22q-10 18 -10 41t10 41q12 22 33 22q22 0 34 -22q10 -18 10 -41z" />
    <glyph glyph-name="semicolon" unicode=";" horiz-adv-x="172" 
d="M148 431q0 -24 -9 -42q-12 -21 -34 -21q-21 0 -33 21q-10 18 -10 42q0 23 11 42.5t32 19.5q22 0 34 -21q9 -18 9 -41zM142 237l-14 -160h-68v160h82z" />
    <glyph glyph-name="less" unicode="&#x3c;" horiz-adv-x="305" 
d="M280 102l-266 241l266 251v-74l-177 -165v-14l177 -165v-74z" />
    <glyph glyph-name="equal" unicode="=" horiz-adv-x="333" 
d="M313 358h-273v57h273v-57zM313 184h-273v56h273v-56z" />
    <glyph glyph-name="greater" unicode="&#x3e;" horiz-adv-x="308" 
d="M294 343l-265 -241v74l176 165v14l-176 165v74z" />
    <glyph glyph-name="question" unicode="?" horiz-adv-x="414" 
d="M393 483q0 -64 -25 -112q-30 -60 -88 -60h-48q-47 0 -69 -53q-16 -38 -16 -93h-30q-21 50 -21 78q0 47 30 85t75 38h25q38 0 58 43q15 33 15 76t-16 76q-19 44 -57 44h-199v56h253q57 0 88 -64q25 -50 25 -114zM182 0h-100v92h100v-92z" />
    <glyph glyph-name="at" unicode="@" horiz-adv-x="523" 
d="M498 92h-368q-79 0 -79 80v270q0 102 79 102h299q43 0 58 -29q11 -20 11 -67v-269h-267q-26 0 -40 26q-12 22 -12 50q0 47 24 65q18 14 58 14q10 0 33.5 -1.5t36.5 -1.5q0 7 1 22v22q0 36 -11 47.5t-37 11.5q-7 0 -24.5 -1t-28.5 -1v25h70q52 0 69 -39q11 -25 11 -85
v-129h45q0 43 1 127t1 126q0 62 -26 62h-248q-33 0 -33 -57q0 -9 1 -26t1 -25v-208q0 -8 -1 -22.5t-1 -21.5q0 -41 33 -41h344v-26zM331 204v102h-83q-23 0 -23 -53q0 -49 23 -49h83z" />
    <glyph glyph-name="A" unicode="A" horiz-adv-x="442" 
d="M428 -1h-99l-25 145h-158l-26 -145h-99l135 661h137zM295 200l-67 369q-2 10 -2 23h-2q0 -13 -1 -23l-68 -369h140z" />
    <glyph glyph-name="B" unicode="B" horiz-adv-x="475" 
d="M436 174q0 -64 -24 -113q-31 -62 -89 -62h-283v662h283q58 0 89 -64q24 -50 24 -115q0 -101 -51 -155q51 -54 51 -153zM342 178q0 43 -15 77q-19 44 -57 44h-91v56h91q38 0 57 45q15 35 15 79t-15 79q-19 47 -57 47h-131v-551h131q37 0 57 46q15 34 15 78z" />
    <glyph glyph-name="C" unicode="C" horiz-adv-x="406" 
d="M376 -1h-226q-57 0 -88 61q-25 48 -25 111v315q0 63 25 113q31 62 88 62h226v-56h-173q-36 0 -56 -43q-16 -34 -16 -76v-315q0 -41 16 -74q20 -43 56 -43h173v-55z" />
    <glyph glyph-name="D" unicode="D" horiz-adv-x="463" 
d="M436 171q0 -63 -25 -111q-31 -61 -87 -61h-284v662h284q57 0 87 -62q25 -50 25 -113v-315zM342 171v315q0 42 -15 76q-20 43 -57 43h-130v-551h130q37 0 56 43q16 33 16 74z" />
    <glyph glyph-name="E" unicode="E" horiz-adv-x="424" 
d="M374 0h-313v661h313v-56h-212v-246h137v-55h-137v-249h212v-55z" />
    <glyph glyph-name="F" unicode="F" horiz-adv-x="354" 
d="M354 605h-213v-246h138v-55h-138v-304h-100v661h313v-56z" />
    <glyph glyph-name="G" unicode="G" horiz-adv-x="446" 
d="M414 -1h-272q-57 0 -88 61q-25 48 -25 111v315q0 63 25 113q31 62 88 62h226v-56h-172q-37 0 -57 -43q-15 -34 -15 -76l-1 -315q0 -41 16 -74q20 -43 57 -43h129v250h-145v56h234v-361z" />
    <glyph glyph-name="H" unicode="H" horiz-adv-x="517" 
d="M467 0h-100v304h-205v-304h-101v661h101v-302h205v302h100v-661z" />
    <glyph glyph-name="I" unicode="I" horiz-adv-x="210" 
d="M161 0h-101v661h101v-661z" />
    <glyph glyph-name="J" unicode="J" horiz-adv-x="426" 
d="M377 171q0 -63 -25 -111q-31 -61 -88 -61h-226v55h172q37 0 57 43q15 33 15 74v434h-72v56h167v-490z" />
    <glyph glyph-name="K" unicode="K" horiz-adv-x="462" 
d="M447 0h-112l-182 313v-313h-101v661h101v-287l182 287h112l-222 -315z" />
    <glyph glyph-name="L" unicode="L" horiz-adv-x="378" 
d="M349 0h-293v665h99v-608h194v-57z" />
    <glyph glyph-name="M" unicode="M" horiz-adv-x="604" 
d="M554 0h-76v475l-125 -475h-87l-124 472v-472h-78v661h113l132 -512l132 512h113v-661z" />
    <glyph glyph-name="N" unicode="N" horiz-adv-x="473" 
d="M436 0h-127l-195 464v-464h-77v661h109l212 -522v522h78v-661z" />
    <glyph glyph-name="O" unicode="O" horiz-adv-x="496" 
d="M457 171q0 -63 -25 -111q-31 -61 -88 -61h-200q-57 0 -88 61q-24 48 -24 111v315q0 63 24 113q31 62 88 62h200q57 0 88 -62q25 -50 25 -113v-315zM363 171v315q0 42 -16 76q-20 43 -56 43h-93q-37 0 -57 -43q-15 -34 -15 -76v-315q0 -41 15 -74q20 -43 57 -43h93
q36 0 56 43q16 33 16 74z" />
    <glyph glyph-name="P" unicode="P" horiz-adv-x="459" 
d="M432 459q0 -69 -22 -123q-30 -72 -90 -72h-145v56h91q39 0 59 54q13 39 13 87q0 49 -14 89q-19 55 -58 55h-130v-605h-100v661h284q59 0 90 -76q22 -56 22 -126z" />
    <glyph glyph-name="Q" unicode="Q" horiz-adv-x="531" 
d="M491 171q0 -63 -24 -111q-31 -61 -88 -61h-64l30 -68h-68l-30 68h-103q-57 0 -88 61q-24 48 -24 111v315q0 63 24 113q31 62 88 62h235q57 0 88 -62q24 -50 24 -113v-315zM397 171v315q0 42 -15 76q-20 43 -57 43h-127q-37 0 -57 -43q-15 -34 -15 -76v-315q0 -41 15 -74
q20 -43 57 -43h127q37 0 57 43q15 33 15 74z" />
    <glyph glyph-name="R" unicode="R" horiz-adv-x="479" 
d="M438 484q0 -109 -67 -159q62 -35 62 -173v-152h-94v152q0 50 -14 90q-19 57 -58 57h-89v56h91q38 0 57 45q15 35 15 79t-15 79q-19 47 -57 47h-131v-605h-99v661h283q58 0 90 -63q26 -51 26 -114z" />
    <glyph glyph-name="S" unicode="S" horiz-adv-x="431" 
d="M408 199q0 -69 -25 -126q-32 -73 -91 -73h-242v55h188q39 0 60 48q16 37 16 82q0 72 -29 96q-21 19 -78 19h-32q-23 -1 -36 -1q-58 0 -88 63q-24 49 -24 115q0 65 24 117q31 67 88 67h219v-56h-165q-37 0 -57 -41q-15 -32 -15 -73q0 -42 15 -73q20 -40 57 -40h106
q57 0 86 -65q23 -49 23 -114z" />
    <glyph glyph-name="T" unicode="T" horiz-adv-x="417" 
d="M406 609h-142v-609h-100v609h-130v55h372v-55z" />
    <glyph glyph-name="U" unicode="U" horiz-adv-x="536" 
d="M486 171q0 -63 -25 -111q-30 -61 -87 -61h-224q-57 0 -87 61q-25 48 -25 111v488h94v-488q0 -41 15 -74q20 -43 57 -43h116q37 0 57 43q15 33 15 74v488h94v-488z" />
    <glyph glyph-name="V" unicode="V" horiz-adv-x="454" 
d="M434 661l-136 -661h-136l-136 661h100l101 -581q0 -1 2 -24h2q0 8 2 24l101 581h100z" />
    <glyph glyph-name="W" unicode="W" horiz-adv-x="728" 
d="M707 661l-136 -661h-136l-63 418l-62 -418h-137l-135 661h99l101 -579l2 -26h1q1 8 3 26l102 579h53l101 -584l3 -21h1q0 7 2 21l101 584h100z" />
    <glyph glyph-name="X" unicode="X" horiz-adv-x="472" 
d="M440 661l-141 -337l140 -324h-107l-88 254l-91 -254h-111l140 324l-140 337h102l93 -266l101 266h102z" />
    <glyph glyph-name="Y" unicode="Y" horiz-adv-x="431" 
d="M418 661l-142 -344v-317h-100l-1 319l-136 342h106l84 -263l83 263h106z" />
    <glyph glyph-name="Z" unicode="Z" horiz-adv-x="439" 
d="M397 0h-349v36l250 569h-250v56h349v-52l-237 -554h237v-55z" />
    <glyph glyph-name="bracketleft" unicode="[" 
 />
    <glyph glyph-name="backslash" unicode="\" horiz-adv-x="321" 
d="M292 -1h-50l-203 606h48z" />
    <glyph glyph-name="bracketright" unicode="]" 
 />
    <glyph glyph-name="asciicircum" unicode="^" horiz-adv-x="263" 
d="M224 524h-33l-49 68l-48 -68h-33l54 147h55z" />
    <glyph glyph-name="underscore" unicode="_" horiz-adv-x="493" 
d="M493 -211h-504v56h504v-56z" />
    <glyph glyph-name="grave" unicode="`" horiz-adv-x="203" 
d="M189 550l-2 -27l-178 86l2 26z" />
    <glyph glyph-name="a" unicode="a" horiz-adv-x="432" 
d="M403 0h-278q-53 0 -81 54q-23 43 -23 101t23 103q28 55 81 55h134v-55h-36q-22 1 -30 1q-43 0 -58 -16q-19 -20 -19 -80q0 -34 9 -64q13 -44 38 -44h141v325q0 43 -10 62q-15 26 -54 26h-127v55h168q76 0 102 -41q20 -31 20 -112v-370z" />
    <glyph glyph-name="b" unicode="b" horiz-adv-x="472" 
d="M448 176q0 -83 -19 -121q-28 -55 -103 -55h-276v662h100v-607h50h50q69 0 87 28q12 20 12 92v183q0 50 -9 72q-14 38 -55 38h-87v55h128q75 0 103 -54q19 -39 19 -122v-171z" />
    <glyph glyph-name="c" unicode="c" horiz-adv-x="402" 
d="M373 0h-199q-76 0 -103 48q-19 35 -19 117v194q0 81 19 116q27 48 103 48h199v-55h-157q-41 0 -55 -37q-9 -22 -9 -71v-205q0 -55 13 -74q16 -24 68 -26q27 -2 70 -1q60 1 70 1v-55z" />
    <glyph glyph-name="d" unicode="d" horiz-adv-x="488" 
d="M438 0h-264q-75 0 -102 55q-20 38 -20 121v171q0 83 20 122q27 54 102 54h116v-55h-75q-41 0 -56 -38q-8 -23 -8 -72v-133q0 -95 13 -125q21 -45 94 -45h40h41v607h99v-662z" />
    <glyph glyph-name="e" unicode="e" horiz-adv-x="451" 
d="M426 369q0 -54 -18 -95q-24 -55 -71 -55h-140v55h83q29 0 43 41q10 29 10 65q0 29 -7 53q-9 35 -29 35h-99q-41 0 -55 -36q-9 -22 -9 -71v-199q0 -58 11 -78q17 -29 70 -29q-21 0 175 0v-55h-234q-76 0 -103 48q-19 35 -19 117v194q0 81 19 116q27 48 103 48h181
q46 0 71 -57q18 -43 18 -97z" />
    <glyph glyph-name="f" unicode="f" horiz-adv-x="271" 
d="M255 450h-106v-450h-99v519q0 78 21 107q25 35 101 35h83v-57l-39 1q-46 0 -59 -28q-8 -16 -8 -71h106v-56z" />
    <glyph glyph-name="g" unicode="g" horiz-adv-x="471" 
d="M442 -56q0 -82 -20 -117q-27 -48 -102 -48h-146v56q31 -1 53 -1q67 0 88 15q28 19 28 86l-1 533h-50q-32 1 -50 1q-76 0 -92 -39q-8 -18 -7 -108l1 -162q0 -48 9 -69q14 -34 54 -34h88v-56h-129q-76 0 -103 48q-20 35 -20 117v194q0 81 21 116q27 48 102 48h276v-580z
" />
    <glyph glyph-name="h" unicode="h" horiz-adv-x="480" 
d="M451 0h-99v352q0 54 -7 75q-13 41 -56 41h-139v-468h-101v661h101v-138h179q76 0 102 -41q20 -31 20 -112v-370z" />
    <glyph glyph-name="i" unicode="i" horiz-adv-x="191" 
d="M152 577h-101v85h101v-85zM152 0h-101v523h101v-523z" />
    <glyph glyph-name="j" unicode="j" horiz-adv-x="302" 
d="M253 577h-100v85h100v-85zM253 -68q0 -80 -21 -111q-26 -42 -101 -42h-82v56h9q64 0 81 25q14 20 14 91v572h100v-591z" />
    <glyph glyph-name="k" unicode="k" horiz-adv-x="445" 
d="M416 0h-112l-152 232v-232h-101v661h101v-342l148 205h101l-185 -236z" />
    <glyph glyph-name="l" unicode="l" horiz-adv-x="211" 
d="M161 0h-101v661h101v-661z" />
    <glyph glyph-name="m" unicode="m" horiz-adv-x="706" 
d="M677 0h-99v352q0 54 -7 75q-13 41 -56 41h-105v-468h-99v468h-168v-468h-100v523h512q76 0 102 -41q20 -31 20 -112v-370z" />
    <glyph glyph-name="n" unicode="n" horiz-adv-x="471" 
d="M444 0h-99v352q0 54 -7 75q-13 41 -56 41h-139v-468h-100v523h279q76 0 102 -41q20 -31 20 -112v-370z" />
    <glyph glyph-name="o" unicode="o" horiz-adv-x="479" 
d="M454 165q0 -82 -20 -117q-27 -48 -102 -48h-175q-75 0 -102 48q-20 35 -20 117v194q0 81 20 116q27 48 102 48h175q75 0 102 -48q20 -35 20 -116v-194zM353 360q0 50 -8 72q-14 36 -55 36h-91q-41 0 -55 -36q-9 -22 -9 -72v-187q0 -43 19 -77q23 -41 62 -41h57
q53 0 69 30q11 20 11 78v197z" />
    <glyph glyph-name="p" unicode="p" horiz-adv-x="465" 
d="M439 166q0 -82 -20 -117q-27 -48 -103 -48h-140v56h99q41 0 55 34q9 22 9 69v162q0 96 -9 113q-17 34 -99 34q-19 0 -51 -1h-51v-693h-100v749h287q75 0 103 -48q20 -35 20 -116v-194z" />
    <glyph glyph-name="q" unicode="q" horiz-adv-x="458" 
d="M429 -225h-100v693l-102 1q-74 0 -91 -40q-7 -17 -7 -107v-162q0 -47 10 -69q14 -34 55 -34h88v-56h-129q-76 0 -103 48q-20 35 -20 117v194q0 81 20 116q28 48 103 48h276v-749z" />
    <glyph glyph-name="r" unicode="r" horiz-adv-x="275" 
d="M274 476h-50q-62 1 -79 -27q-11 -18 -11 -89v-360h-100v373q0 158 172 158h68v-55z" />
    <glyph glyph-name="s" unicode="s" horiz-adv-x="430" 
d="M405 145q0 -51 -15 -91q-21 -54 -65 -54h-263v55h211q24 0 37 32q9 24 9 53t-9 53q-13 33 -37 33h-156q-46 0 -71 59q-20 45 -20 98q0 55 21 93q25 48 75 48h220v-56h-185q-21 0 -32 -32q-8 -22 -8 -50q0 -27 8 -50q11 -31 32 -31h168q42 0 64 -62q16 -46 16 -98z" />
    <glyph glyph-name="t" unicode="t" horiz-adv-x="287" 
d="M278 468h-129v-320q0 -62 19 -79q15 -14 75 -14v-55h-72q-77 0 -99.5 26t-22.5 104v531h100v-138h129v-55z" />
    <glyph glyph-name="u" unicode="u" horiz-adv-x="464" 
d="M435 1h-280q-76 0 -102 41q-20 32 -20 112v370h98v-351q0 -54 8 -76q13 -40 56 -40h140v467h100v-523z" />
    <glyph glyph-name="v" unicode="v" horiz-adv-x="462" 
d="M450 524l-142 -524h-141l-142 524h102l110 -466l111 466h102z" />
    <glyph glyph-name="w" unicode="w" horiz-adv-x="712" 
d="M703 524l-130 -524h-141l-68 359l-68 -359h-141l-130 524h102l98 -466l111 466h56l110 -466l99 466h102z" />
    <glyph glyph-name="x" unicode="x" horiz-adv-x="457" 
d="M428 524l-132 -266l130 -258h-103l-81 214l-83 -214h-103l130 258l-131 266h96l91 -226l89 226h97z" />
    <glyph glyph-name="y" unicode="y" horiz-adv-x="507" 
d="M493 524l-264 -753h-91l84 229l-200 524h114l144 -397l134 397h79z" />
    <glyph glyph-name="z" unicode="z" horiz-adv-x="412" 
d="M383 0h-337v32l229 436h-229v56h337v-48l-215 -421h215v-55z" />
    <glyph glyph-name="braceleft" unicode="{" 
 />
    <glyph glyph-name="bar" unicode="|" horiz-adv-x="209" 
d="M160 -196h-99v958h99v-958z" />
    <glyph glyph-name="braceright" unicode="}" 
 />
    <glyph glyph-name="exclamdown" unicode="&#xa1;" horiz-adv-x="210" 
d="M153 324h-100v-479h100v479zM153 507h-100v-73h100v73z" />
    <glyph glyph-name="cent" unicode="&#xa2;" horiz-adv-x="259" 
d="M238 308h-141q-54 0 -73 34q-14 25 -14 83v138q0 58 14 83q19 34 73 34h141v-40h-112q-45 0 -45 -76v-146q0 -38 9 -52q12 -17 48 -19q20 -1 50 0q43 1 50 1v-40zM171 248h-32v482h32v-482z" />
    <glyph glyph-name="sterling" unicode="&#xa3;" 
 />
    <glyph glyph-name="currency" unicode="&#xa4;" horiz-adv-x="406" 
d="M376 -1h-226q-113 0 -113 208h-55v56h55v118h-55v57h55q0 223 113 223h226v-56h-173q-48 0 -64 -65q-8 -33 -8 -102h124v-57h-124v-118h124v-56h-124v-36q0 -42 16 -75q20 -42 56 -42h173v-55z" />
    <glyph glyph-name="yen" unicode="&#xa5;" horiz-adv-x="380" 
d="M390 661l-142 -344v-317h-100l-1 319l-136 342h106l84 -263l84 263h105zM320 204h-245v38h245v-38zM320 86h-245v38h245v-38z" />
    <glyph glyph-name="brokenbar" unicode="&#xa6;" horiz-adv-x="133" 
d="M108 453h-76v329h76v-329zM108 -180h-76v329h76v-329z" />
    <glyph glyph-name="section" unicode="&#xa7;" 
 />
    <glyph glyph-name="dieresis" unicode="&#xa8;" horiz-adv-x="244" 
d="M228 558q0 -25 -47 -25q-48 0 -48 25q0 26 48 26q47 0 47 -26zM124 558q0 -25 -48 -25t-48 25q0 26 48 26t48 -26z" />
    <glyph glyph-name="copyright" unicode="&#xa9;" horiz-adv-x="532" 
d="M384 86h-175q-44 0 -68 26q-19 21 -19 47v133q0 27 19 48q24 26 68 26h175v-23h-134q-28 0 -44 -19q-12 -14 -12 -32v-133q0 -17 12 -31q16 -18 44 -18h134v-24zM510 228q0 -97 -70 -162.5t-168 -65.5t-167.5 65.5t-69.5 162.5t70 163t167 66t167.5 -66t70.5 -163z
M468 228q0 86 -54 152q-58 71 -142 71q-83 0 -141 -71q-54 -66 -54 -152q0 -85 54 -152q57 -70 141 -70t142 71q54 66 54 151z" />
    <glyph glyph-name="ordfeminine" unicode="&#xaa;" 
 />
    <glyph glyph-name="guillemotleft" unicode="&#xab;" 
 />
    <glyph glyph-name="logicalnot" unicode="&#xac;" 
 />
    <glyph glyph-name="glyph109" 
 />
    <glyph glyph-name="registered" unicode="&#xae;" horiz-adv-x="497" 
d="M337 522q0 -39 -27 -56q25 -13 25 -61v-53h-37v53q0 52 -28 52h-35v19h35q29 0 29 44t-29 44h-51v-212h-39v231h111q23 0 36 -21q10 -18 10 -40zM481 470q0 -94 -66.5 -158.5t-160.5 -64.5t-160.5 64.5t-66.5 158.5q0 93 66.5 157.5t160.5 64.5q93 0 160 -64.5t67 -157.5
zM440 470q0 82 -51 147q-55 69 -135 69q-81 0 -135 -69q-51 -65 -51 -147q0 -83 51 -148q54 -69 135 -69q80 0 135 69q51 65 51 148z" />
    <glyph glyph-name="overscore" unicode="&#xaf;" 
 />
    <glyph glyph-name="degree" unicode="&#xb0;" horiz-adv-x="410" 
d="M386 598q0 -72 -54.5 -117.5t-128.5 -45.5q-73 0 -125 44q-56 47 -56 119q0 73 55 120q53 44 126 44q74 0 128.5 -46t54.5 -118zM309 599q0 49 -28 90q-31 45 -78 45q-46 0 -77 -45q-28 -41 -28 -90t28 -90q31 -46 77 -46q47 0 78 46q28 41 28 90z" />
    <glyph glyph-name="plusminus" unicode="&#xb1;" 
 />
    <glyph glyph-name="twosuperior" unicode="&#xb2;" 
 />
    <glyph glyph-name="threesuperior" unicode="&#xb3;" 
 />
    <glyph glyph-name="acute" unicode="&#xb4;" horiz-adv-x="231" 
d="M191 609l-178 -86l-2 27l178 85z" />
    <glyph glyph-name="mu1" unicode="&#xb5;" 
 />
    <glyph glyph-name="middot" unicode="&#xb7;" 
 />
    <glyph glyph-name="middot" unicode="&#x2219;" 
 />
    <glyph glyph-name="cedilla" unicode="&#xb8;" horiz-adv-x="201" 
d="M208 -125q0 -22 -13.5 -37.5t-35.5 -15.5h-108v24h85q31 0 31 29q0 20 -21.5 25l-42.5 10q-23 12 -23 46q0 12 9 33h13q0 -48 28 -59q25 -4 51.5 -10t26.5 -45z" />
    <glyph glyph-name="onesuperior" unicode="&#xb9;" 
 />
    <glyph glyph-name="ordmasculine" unicode="&#xba;" horiz-adv-x="374" 
d="M331 605q0 -70 -42.5 -115.5t-112.5 -45.5q-69 0 -107 41.5t-38 110.5q0 77 38 121t114 44q69 0 108.5 -42.5t39.5 -113.5zM247 574q0 48 -17 96q-23 63 -62 63q-52 0 -52 -101q0 -47 16 -94q22 -62 60 -62q55 0 55 98z" />
    <glyph glyph-name="guillemotright" unicode="&#xbb;" 
 />
    <glyph glyph-name="onequarter" unicode="&#xbc;" 
 />
    <glyph glyph-name="onehalf" unicode="&#xbd;" 
 />
    <glyph glyph-name="threequarters" unicode="&#xbe;" 
 />
    <glyph glyph-name="questiondown" unicode="&#xbf;" horiz-adv-x="414" 
d="M31 -21q0 64 24 112q30 60 88 60h48q47 0 69 53q16 38 16 93h30q21 -49 21 -78q0 -47 -30 -85t-75 -38h-25q-38 0 -57 -43q-15 -33 -15 -76q0 -42 15 -76q19 -44 57 -44h199v-56h-253q-57 0 -88 64q-24 50 -24 114zM241 462h100v-92h-100v92z" />
    <glyph glyph-name="Agrave" unicode="&#xc0;" horiz-adv-x="442" 
d="M429 -1h-100l-25 145h-158l-25 -145h-99l135 661h136zM295 200l-67 369q-2 10 -1 23h-3q1 -13 -1 -23l-67 -369h139zM286 713l-2 -27l-178 86l2 26z" />
    <glyph glyph-name="Aacute" unicode="&#xc1;" horiz-adv-x="442" 
d="M429 -1h-100l-25 145h-158l-25 -145h-99l135 661h136zM295 200l-67 369q-2 10 -1 23h-3q1 -13 -1 -23l-67 -369h139zM336 773l-178 -85l-2 26l178 85z" />
    <glyph glyph-name="Acircumflex" unicode="&#xc2;" horiz-adv-x="442" 
d="M429 -1h-100l-25 145h-158l-25 -145h-99l135 661h136zM295 200l-67 369q-2 10 -1 23h-3q1 -13 -1 -23l-67 -369h139zM351 724h-46l-70 36l-68 -36h-47l74 52h84z" />
    <glyph glyph-name="Atilde" unicode="&#xc3;" horiz-adv-x="442" 
d="M429 -1h-100l-25 145h-158l-25 -145h-99l135 661h136zM295 200l-67 369q-2 10 -1 23h-3q1 -13 -1 -23l-67 -369h139zM346 771q-21 -43 -73 -43q-34 0 -85 28q-7 -8 -12 -27h-57q19 42 71 42q32 0 86 -28q7 8 12 28h58z" />
    <glyph glyph-name="Adieresis" unicode="&#xc4;" horiz-adv-x="442" 
d="M429 -1h-100l-25 145h-158l-25 -145h-99l135 661h136zM295 200l-67 369q-2 10 -1 23h-3q1 -13 -1 -23l-67 -369h139zM323 750q0 -25 -48 -25t-48 25q0 26 48 26t48 -26zM218 750q0 -25 -48 -25t-48 25q0 26 48 26t48 -26z" />
    <glyph glyph-name="Aring" unicode="&#xc5;" horiz-adv-x="442" 
d="M429 -1h-100l-25 145h-158l-25 -145h-99l135 661h136zM295 200l-67 369q-2 10 -1 23h-3q1 -13 -1 -23l-67 -369h139zM311 731q0 -26 -30 -41q-24 -13 -53 -13q-28 0 -53 13q-29 15 -29 41t29 42q25 12 53 12q29 0 53 -13q30 -15 30 -41zM256 736q0 46 -28 46
q-27 0 -27 -44v-14q0 -43 27 -43q28 0 28 45v10z" />
    <glyph glyph-name="AE" unicode="&#xc6;" horiz-adv-x="488" 
d="M460 4h-254v210h-60l-33 -214h-100l124 661h323v-52h-150v-340h93v-55h-93v-155h150v-55zM206 269v264l-49 -264h49z" />
    <glyph glyph-name="Ccedilla" unicode="&#xc7;" horiz-adv-x="421" 
d="M371 -1h-226q-57 0 -88 61q-24 48 -24 111v315q0 63 24 113q31 62 88 62h226v-56h-172q-37 0 -57 -43q-15 -34 -15 -76v-315q0 -41 15 -74q20 -43 57 -43h172v-55zM338 -102q0 -22 -13.5 -37.5t-34.5 -15.5h-109v24h86q31 0 31 28q0 20 -22 25.5l-43 10.5q-23 11 -23 45
q0 12 9 34h14q0 -48 27 -59q25 -5 51 -9q27 -7 27 -46z" />
    <glyph glyph-name="Egrave" unicode="&#xc8;" horiz-adv-x="424" 
d="M354 0h-314v661h314v-56h-213v-246h138v-55h-138v-249h213v-55zM280 711l-2 -27l-178 85l1 26z" />
    <glyph glyph-name="Eacute" unicode="&#xc9;" horiz-adv-x="424" 
d="M354 0h-314v661h314v-56h-213v-246h138v-55h-138v-249h213v-55zM287 776l-178 -86l-1 27l178 85z" />
    <glyph glyph-name="Ecircumflex" unicode="&#xca;" horiz-adv-x="424" 
d="M350 0h-314v661h314v-56h-213v-246h137v-55h-137v-249h213v-55zM317 727h-46l-71 36l-68 -36h-47l75 52h83z" />
    <glyph glyph-name="Edieresis" unicode="&#xcb;" horiz-adv-x="424" 
d="M354 0h-314v661h314v-56h-213v-246h138v-55h-138v-249h213v-55zM302 756q0 -25 -48 -25t-48 25t48 25t48 -25zM197 756q0 -25 -47 -25q-48 0 -48 25t47 25q48 0 48 -25z" />
    <glyph glyph-name="Igrave" unicode="&#xcc;" horiz-adv-x="210" 
d="M152 0h-101v661h101v-661zM181 711l-1 -27l-178 86l1 26z" />
    <glyph glyph-name="Iacute" unicode="&#xcd;" horiz-adv-x="210" 
d="M155 0h-100v661h100v-661zM217 777l-178 -86l-2 27l178 84z" />
    <glyph glyph-name="Icircumflex" unicode="&#xce;" horiz-adv-x="210" 
d="M155 0h-100v661h100v-661zM222 730h-46l-70 36l-69 -36h-46l74 52h83z" />
    <glyph glyph-name="Idieresis" unicode="&#xcf;" horiz-adv-x="210" 
d="M156 0h-101v661h101v-661zM200 757q0 -26 -48 -26t-48 26q0 25 48 25t48 -25zM95 757q0 -26 -48 -26t-48 26q0 25 48 25t48 -25z" />
    <glyph glyph-name="Eth" unicode="&#xd0;" horiz-adv-x="475" 
d="M435 171q0 -63 -24 -111q-31 -61 -88 -61h-284v662h284q57 0 88 -62q24 -50 24 -113v-315zM341 171v315q0 42 -15 76q-20 43 -57 43h-130v-551h130q37 0 57 42q15 34 15 75zM212 314h-211v55h211v-55z" />
    <glyph glyph-name="Ntilde" unicode="&#xd1;" horiz-adv-x="473" 
d="M436 0h-127l-195 464v-464h-77v661h109l212 -522v522h78v-661zM343 780q-21 -43 -73 -43q-34 0 -84 28q-8 -8 -13 -27h-57q20 42 71 42q32 0 86 -29q7 9 12 29h58z" />
    <glyph glyph-name="Ograve" unicode="&#xd2;" horiz-adv-x="496" 
d="M457 171q0 -63 -25 -111q-31 -61 -88 -61h-200q-57 0 -88 61q-24 48 -24 111v315q0 63 24 113q31 62 88 62h200q57 0 88 -62q25 -50 25 -113v-315zM363 171v315q0 42 -16 76q-20 43 -56 43h-93q-37 0 -57 -43q-15 -34 -15 -76v-315q0 -41 15 -75q20 -42 57 -42h93
q36 0 56 42q16 34 16 75zM316 713l-1 -27l-178 86l1 26z" />
    <glyph glyph-name="Oacute" unicode="&#xd3;" horiz-adv-x="496" 
d="M457 171q0 -63 -25 -111q-31 -61 -88 -61h-200q-57 0 -88 61q-24 48 -24 111v315q0 63 24 113q31 62 88 62h200q57 0 88 -62q25 -50 25 -113v-315zM363 171v315q0 42 -16 76q-20 43 -56 43h-93q-37 0 -57 -43q-15 -34 -15 -76v-315q0 -41 15 -75q20 -42 57 -42h93
q36 0 56 42q16 34 16 75zM326 779l-178 -86l-2 27l178 84z" />
    <glyph glyph-name="Ocircumflex" unicode="&#xd4;" horiz-adv-x="496" 
d="M457 171q0 -63 -25 -111q-31 -61 -88 -61h-200q-57 0 -88 61q-24 48 -24 111v315q0 63 24 113q31 62 88 62h200q57 0 88 -62q25 -50 25 -113v-315zM363 171v315q0 42 -16 76q-20 43 -56 43h-93q-37 0 -57 -43q-15 -34 -15 -76v-315q0 -41 15 -75q20 -42 57 -42h93
q36 0 56 42q16 34 16 75zM363 724h-46l-70 36l-68 -36h-47l74 52h84z" />
    <glyph glyph-name="Otilde" unicode="&#xd5;" horiz-adv-x="496" 
d="M457 171q0 -63 -25 -111q-31 -61 -88 -61h-200q-57 0 -88 61q-24 48 -24 111v315q0 63 24 113q31 62 88 62h200q57 0 88 -62q25 -50 25 -113v-315zM363 171v315q0 42 -16 76q-20 43 -56 43h-93q-37 0 -57 -43q-15 -34 -15 -76v-315q0 -41 15 -75q20 -42 57 -42h93
q36 0 56 42q16 34 16 75zM362 780q-21 -44 -72 -44q-34 0 -85 29q-7 -9 -12 -28h-57q19 43 71 43q32 0 86 -29q7 9 12 29h57z" />
    <glyph glyph-name="Odieresis" unicode="&#xd6;" horiz-adv-x="496" 
d="M457 171q0 -63 -25 -111q-31 -61 -88 -61h-200q-57 0 -88 61q-24 48 -24 111v315q0 63 24 113q31 62 88 62h200q57 0 88 -62q25 -50 25 -113v-315zM363 171v315q0 42 -16 76q-20 43 -56 43h-93q-37 0 -57 -43q-15 -34 -15 -76v-315q0 -41 15 -75q20 -42 57 -42h93
q36 0 56 42q16 34 16 75zM347 757q0 -25 -47 -25q-48 0 -48 25q0 26 48 26q47 0 47 -26zM242 757q0 -25 -47 -25q-48 0 -48 25q0 26 48 26q47 0 47 -26z" />
    <glyph glyph-name="Oslash" unicode="&#xd8;" horiz-adv-x="496" 
d="M457 171q0 -63 -25 -111q-31 -61 -88 -61h-200q-57 0 -88 61q-24 48 -24 111v315q0 63 24 113q31 62 88 62h200q57 0 88 -62q25 -50 25 -113v-315zM363 171v315q0 42 -16 76q-20 43 -56 43h-93q-37 0 -57 -43q-15 -34 -15 -76v-315q0 -41 15 -75q20 -42 57 -42h93
q36 0 56 42q16 34 16 75zM365 630l-201 -605h-51l204 605h48z" />
    <glyph glyph-name="Ugrave" unicode="&#xd9;" horiz-adv-x="536" 
d="M486 171q0 -63 -25 -111q-30 -61 -87 -61h-224q-57 0 -87 61q-25 48 -25 111v488h94v-488q0 -41 15 -74q20 -43 57 -43h116q37 0 57 43q15 33 15 74v488h94v-488zM340 717l-2 -27l-178 86l1 26z" />
    <glyph glyph-name="Uacute" unicode="&#xda;" horiz-adv-x="536" 
d="M486 171q0 -63 -25 -111q-30 -61 -87 -61h-224q-57 0 -87 61q-25 48 -25 111v488h94v-488q0 -41 15 -74q20 -43 57 -43h116q37 0 57 43q15 33 15 74v488h94v-488zM365 773l-178 -86l-2 27l179 85z" />
    <glyph glyph-name="Ucircumflex" unicode="&#xdb;" horiz-adv-x="536" 
d="M486 171q0 -63 -25 -111q-30 -61 -87 -61h-224q-57 0 -87 61q-25 48 -25 111v488h94v-488q0 -41 15 -74q20 -43 57 -43h116q37 0 57 43q15 33 15 74v488h94v-488zM378 724h-46l-70 36l-68 -36h-47l74 52h84z" />
    <glyph glyph-name="Udieresis" unicode="&#xdc;" horiz-adv-x="536" 
d="M486 171q0 -63 -25 -111q-30 -61 -87 -61h-224q-57 0 -87 61q-25 48 -25 111v488h94v-488q0 -41 15 -74q20 -43 57 -43h116q37 0 57 43q15 33 15 74v488h94v-488zM368 754q0 -25 -47 -25q-48 0 -48 25q0 26 48 26q47 0 47 -26zM264 754q0 -25 -48 -25t-48 25q0 26 48 26
t48 -26z" />
    <glyph glyph-name="Yacute" unicode="&#xdd;" horiz-adv-x="374" 
d="M372 661l-142 -344v-317h-100l-1 319l-136 342h106l84 -263l84 263h105zM280 777l-178 -86l-2 27l178 85z" />
    <glyph glyph-name="Thorn" unicode="&#xde;" 
 />
    <glyph glyph-name="germandbls" unicode="&#xdf;" horiz-adv-x="424" 
d="M409 495q0 -48 -16 -93q-20 -59 -58 -67q36 0 58 -69q15 -50 15 -98q0 -69 -27 -114q-33 -54 -98 -54h-123v55h80q41 0 62 43q16 33 16 78q0 43 -15 80q-19 49 -55 49h-68v55h68q30 0 44 48q10 34 10 75q0 40 -10 75q-13 51 -40 51h-77q-31 0 -48 -30q-14 -24 -14 -58
v-521h-102v513q0 78 20 110q25 41 98 41h154q64 0 98 -55q28 -46 28 -114z" />
    <glyph glyph-name="agrave" unicode="&#xe0;" horiz-adv-x="432" 
d="M403 0h-278q-53 0 -81 54q-23 43 -23 101t23 103q28 55 81 55h134v-55h-36q-22 1 -30 1q-43 0 -58 -16q-19 -20 -19 -80q0 -34 9 -64q13 -44 38 -44h141v325q0 43 -10 62q-15 26 -54 26h-127v55h168q76 0 102 -41q20 -31 20 -112v-370zM293 557l-2 -27l-178 86l2 26z" />
    <glyph glyph-name="aacute" unicode="&#xe1;" horiz-adv-x="432" 
d="M403 0h-278q-53 0 -81 54q-23 43 -23 101t23 103q28 55 81 55h134v-55h-36q-22 1 -30 1q-43 0 -58 -16q-19 -20 -19 -80q0 -34 9 -64q13 -44 38 -44h141v325q0 43 -10 62q-15 26 -54 26h-127v55h168q76 0 102 -41q20 -31 20 -112v-370zM288 617l-178 -86l-1 27l178 85z
" />
    <glyph glyph-name="acircumflex" unicode="&#xe2;" horiz-adv-x="432" 
d="M403 0h-278q-53 0 -81 54q-23 43 -23 101t23 103q28 55 81 55h134v-55h-36q-22 1 -30 1q-43 0 -58 -16q-19 -20 -19 -80q0 -34 9 -64q13 -44 38 -44h141v325q0 43 -10 62q-15 26 -54 26h-127v55h168q76 0 102 -41q20 -31 20 -112v-370zM360 566h-46l-70 37l-69 -37h-46
l74 53h83z" />
    <glyph glyph-name="atilde" unicode="&#xe3;" horiz-adv-x="432" 
d="M403 0h-278q-53 0 -81 54q-23 43 -23 101t23 103q28 55 81 55h134v-55h-36q-22 1 -30 1q-43 0 -58 -16q-19 -20 -19 -80q0 -34 9 -64q13 -44 38 -44h141v325q0 43 -10 62q-15 26 -54 26h-127v55h168q76 0 102 -41q20 -31 20 -112v-370zM345 614q-21 -44 -72 -44
q-34 0 -85 29q-7 -9 -12 -28h-58q20 43 72 43q32 0 86 -29q7 9 12 29h57z" />
    <glyph glyph-name="adieresis" unicode="&#xe4;" horiz-adv-x="432" 
d="M403 0h-278q-53 0 -81 54q-23 43 -23 101t23 103q28 55 81 55h134v-55h-36q-22 1 -30 1q-43 0 -58 -16q-19 -20 -19 -80q0 -34 9 -64q13 -44 38 -44h141v325q0 43 -10 62q-15 26 -54 26h-127v55h168q76 0 102 -41q20 -31 20 -112v-370zM321 587q0 -25 -48 -25t-48 25
t48 25t48 -25zM216 587q0 -25 -48 -25t-48 25t48 25t48 -25z" />
    <glyph glyph-name="aring" unicode="&#xe5;" horiz-adv-x="432" 
d="M403 0h-278q-53 0 -81 54q-23 43 -23 101t23 103q28 55 81 55h134v-55h-36q-22 1 -30 1q-43 0 -58 -16q-19 -20 -19 -80q0 -34 9 -64q13 -44 38 -44h141v325q0 43 -10 62q-15 26 -54 26h-127v55h168q76 0 102 -41q20 -31 20 -112v-370zM305 577q0 -26 -29 -42
q-24 -12 -53 -12t-53 12q-30 16 -30 42t30 41q24 12 53 12q28 0 53 -12q29 -15 29 -41zM250 582q0 45 -27 45q-28 0 -28 -43v-14q0 -44 28 -44q27 0 27 46v10z" />
    <glyph glyph-name="ae" unicode="&#xe6;" horiz-adv-x="710" 
d="M676 211h-275v-80q0 -74 62 -74h195v-56l-510 -1q-82 0 -101 35q-11 21 -11 113q0 78 22 98.5t100 20.5h165v82q0 73 -61 73h-208v55l500 1q78 0 100 -20.5t22 -97.5v-149zM580 327q0 95 -54 95h-63q-62 0 -62 -78v-77h179v60zM325 55v29q0 21 -1 63.5t-1 63.5h-156
q-40 0 -40 -62q0 -25 9 -55q12 -39 31 -39h158z" />
    <glyph glyph-name="ccedilla" unicode="&#xe7;" horiz-adv-x="363" 
d="M334 0h-200q-75 0 -102 48q-20 35 -20 117v194q0 81 20 116q27 48 102 48h200v-55h-158q-41 0 -55 -37q-8 -22 -8 -71v-205q0 -55 12 -74q16 -24 68 -26q27 -2 70 -1q60 1 71 1v-55zM312 -113q0 -22 -13 -37.5t-35 -15.5h-109v24h86q31 0 31 28q0 20 -22 25.5l-43 10.5
q-22 11 -22 45q0 12 9 34h13q0 -48 27 -59q26 -5 51 -9q27 -7 27 -46z" />
    <glyph glyph-name="egrave" unicode="&#xe8;" horiz-adv-x="451" 
d="M426 369q0 -54 -18 -95q-24 -55 -71 -55h-140v55h83q29 0 43 41q10 29 10 65q0 29 -7 53q-9 35 -29 35h-99q-41 0 -55 -36q-9 -22 -9 -71v-199q0 -58 11 -78q17 -29 70 -29q-21 0 175 0v-55h-234q-76 0 -103 48q-19 35 -19 117v194q0 81 19 116q27 48 103 48h181
q46 0 71 -57q18 -43 18 -97zM307 554l-2 -27l-178 86l2 25z" />
    <glyph glyph-name="eacute" unicode="&#xe9;" horiz-adv-x="451" 
d="M426 369q0 -54 -18 -95q-24 -55 -71 -55h-140v55h83q29 0 43 41q10 29 10 65q0 29 -7 53q-9 35 -29 35h-99q-41 0 -55 -36q-9 -22 -9 -71v-199q0 -58 11 -78q17 -29 70 -29q-21 0 175 0v-55h-234q-76 0 -103 48q-19 35 -19 117v194q0 81 19 116q27 48 103 48h181
q46 0 71 -57q18 -43 18 -97zM334 613l-178 -86l-2 27l178 85z" />
    <glyph glyph-name="ecircumflex" unicode="&#xea;" horiz-adv-x="451" 
d="M426 369q0 -54 -18 -95q-24 -55 -71 -55h-140v55h83q29 0 43 41q10 29 10 65q0 29 -7 53q-9 35 -29 35h-99q-41 0 -55 -36q-9 -22 -9 -71v-199q0 -58 11 -78q17 -29 70 -29q-21 0 175 0v-55h-234q-76 0 -103 48q-19 35 -19 117v194q0 81 19 116q27 48 103 48h181
q46 0 71 -57q18 -43 18 -97zM350 563h-46l-70 36l-69 -36h-46l74 53h83z" />
    <glyph glyph-name="edieresis" unicode="&#xeb;" horiz-adv-x="451" 
d="M426 369q0 -54 -18 -95q-24 -55 -71 -55h-140v55h83q29 0 43 41q10 29 10 65q0 29 -7 53q-9 35 -29 35h-99q-41 0 -55 -36q-9 -22 -9 -71v-199q0 -58 11 -78q17 -29 70 -29q-21 0 175 0v-55h-234q-76 0 -103 48q-19 35 -19 117v194q0 81 19 116q27 48 103 48h181
q46 0 71 -57q18 -43 18 -97zM333 590q0 -25 -47 -25q-48 0 -48 25t48 25q47 0 47 -25zM229 590q0 -25 -48 -25t-48 25t48 25t48 -25z" />
    <glyph glyph-name="igrave" unicode="&#xec;" horiz-adv-x="191" 
d="M151 0h-101v523h101v-523zM181 565l-2 -27l-178 86l2 25z" />
    <glyph glyph-name="iacute" unicode="&#xed;" horiz-adv-x="191" 
d="M147 0h-101v523h101v-523zM209 610l-178 -86l-2 27l178 84z" />
    <glyph glyph-name="icircumflex" unicode="&#xee;" horiz-adv-x="191" 
d="M152 0h-101v523h101v-523zM226 566h-46l-70 36l-69 -36h-46l74 52h83z" />
    <glyph glyph-name="idieresis" unicode="&#xef;" horiz-adv-x="191" 
d="M150 0h-101v523h101v-523zM203 593q0 -25 -47 -25q-48 0 -48 25t48 25q47 0 47 -25zM99 593q0 -25 -48 -25t-48 25t48 25t48 -25z" />
    <glyph glyph-name="eth" unicode="&#xf0;" 
 />
    <glyph glyph-name="ntilde" unicode="&#xf1;" horiz-adv-x="471" 
d="M444 0h-99v352q0 54 -7 75q-13 41 -56 41h-139v-468h-100v523h279q76 0 102 -41q20 -31 20 -112v-370zM361 613q-21 -44 -73 -44q-34 0 -84 29q-7 -9 -13 -28h-57q20 43 71 43q32 0 86 -29q8 9 12 29h58z" />
    <glyph glyph-name="ograve" unicode="&#xf2;" horiz-adv-x="479" 
d="M457 165q0 -82 -19 -117q-27 -48 -103 -48h-175q-75 0 -102 48q-20 35 -20 117v194q0 81 20 116q27 48 102 48h175q76 0 103 -48q19 -35 19 -116v-194zM357 360q0 50 -9 72q-14 36 -55 36h-91q-41 0 -55 -36q-8 -22 -8 -72v-187q0 -43 19 -77q22 -41 61 -41h57
q53 0 70 30q11 20 11 78v197zM350 554l-2 -27l-178 86l2 26z" />
    <glyph glyph-name="oacute" unicode="&#xf3;" horiz-adv-x="479" 
d="M457 165q0 -82 -19 -117q-27 -48 -103 -48h-175q-75 0 -102 48q-20 35 -20 117v194q0 81 20 116q27 48 102 48h175q76 0 103 -48q19 -35 19 -116v-194zM357 360q0 50 -9 72q-14 36 -55 36h-91q-41 0 -55 -36q-8 -22 -8 -72v-187q0 -43 19 -77q22 -41 61 -41h57
q53 0 70 30q11 20 11 78v197zM336 613l-178 -86l-2 27l178 84z" />
    <glyph glyph-name="ocircumflex" unicode="&#xf4;" horiz-adv-x="479" 
d="M457 165q0 -82 -19 -117q-27 -48 -103 -48h-175q-75 0 -102 48q-20 35 -20 117v194q0 81 20 116q27 48 102 48h175q76 0 103 -48q19 -35 19 -116v-194zM357 360q0 50 -9 72q-14 36 -55 36h-91q-41 0 -55 -36q-8 -22 -8 -72v-187q0 -43 19 -77q22 -41 61 -41h57
q53 0 70 30q11 20 11 78v197zM370 562h-46l-70 36l-68 -36h-47l74 53h84z" />
    <glyph glyph-name="otilde" unicode="&#xf5;" horiz-adv-x="479" 
d="M457 165q0 -82 -19 -117q-27 -48 -103 -48h-175q-75 0 -102 48q-20 35 -20 117v194q0 81 20 116q27 48 102 48h175q76 0 103 -48q19 -35 19 -116v-194zM357 360q0 50 -9 72q-14 36 -55 36h-91q-41 0 -55 -36q-8 -22 -8 -72v-187q0 -43 19 -77q22 -41 61 -41h57
q53 0 70 30q11 20 11 78v197zM362 614q-21 -44 -73 -44q-33 0 -84 29q-7 -9 -13 -28h-57q20 43 72 43q32 0 86 -29q7 9 11 29h58z" />
    <glyph glyph-name="odieresis" unicode="&#xf6;" horiz-adv-x="479" 
d="M457 165q0 -82 -19 -117q-27 -48 -103 -48h-175q-75 0 -102 48q-20 35 -20 117v194q0 81 20 116q27 48 102 48h175q76 0 103 -48q19 -35 19 -116v-194zM357 360q0 50 -9 72q-14 36 -55 36h-91q-41 0 -55 -36q-8 -22 -8 -72v-187q0 -43 19 -77q22 -41 61 -41h57
q53 0 70 30q11 20 11 78v197zM355 590q0 -26 -47 -26q-48 0 -48 26q0 25 48 25q47 0 47 -25zM251 590q0 -26 -48 -26t-48 26q0 25 48 25t48 -25z" />
    <glyph glyph-name="divide" unicode="&#xf7;" 
 />
    <glyph glyph-name="oslash" unicode="&#xf8;" horiz-adv-x="479" 
d="M457 165q0 -82 -19 -117q-27 -48 -103 -48h-175q-75 0 -102 48q-20 35 -20 117v194q0 81 20 116q27 48 102 48h175q76 0 103 -48q19 -35 19 -116v-194zM357 360q0 50 -9 72q-14 36 -55 36h-91q-41 0 -55 -36q-8 -22 -8 -72v-187q0 -43 19 -77q22 -41 61 -41h57
q53 0 70 30q11 20 11 78v197zM381 484l-214 -437h-54l216 437h52z" />
    <glyph glyph-name="ugrave" unicode="&#xf9;" horiz-adv-x="464" 
d="M435 1h-280q-76 0 -102 41q-20 32 -20 112v370h98v-351q0 -54 8 -76q13 -40 56 -40h140v467h100v-523zM323 554l-2 -27l-178 86l2 26z" />
    <glyph glyph-name="uacute" unicode="&#xfa;" horiz-adv-x="464" 
d="M435 1h-280q-76 0 -102 41q-20 32 -20 112v370h98v-351q0 -54 8 -76q13 -40 56 -40h140v467h100v-523zM325 616l-178 -86l-2 27l178 85z" />
    <glyph glyph-name="ucircumflex" unicode="&#xfb;" horiz-adv-x="464" 
d="M435 1h-280q-76 0 -102 41q-20 32 -20 112v370h98v-351q0 -54 8 -76q13 -40 56 -40h140v467h100v-523zM357 566h-47l-70 36l-68 -36h-47l75 52h83z" />
    <glyph glyph-name="udieresis" unicode="&#xfc;" horiz-adv-x="464" 
d="M435 1h-280q-76 0 -102 41q-20 32 -20 112v370h98v-351q0 -54 8 -76q13 -40 56 -40h140v467h100v-523zM338 589q0 -25 -47 -25q-48 0 -48 25q0 26 48 26q47 0 47 -26zM234 589q0 -25 -48 -25t-48 25q0 26 48 26t48 -26z" />
    <glyph glyph-name="yacute" unicode="&#xfd;" horiz-adv-x="501" 
d="M488 524l-264 -753h-92l85 229l-200 524h113l145 -397l134 397h79zM371 616l-178 -86l-2 27l178 85z" />
    <glyph glyph-name="thorn" unicode="&#xfe;" 
 />
    <glyph glyph-name="ydieresis" unicode="&#xff;" horiz-adv-x="507" 
d="M493 524l-264 -753h-91l84 229l-200 524h114l144 -397l134 397h79zM381 590q0 -25 -48 -25t-48 25q0 26 48 26t48 -26zM276 590q0 -25 -48 -25t-48 25q0 26 48 26t48 -26z" />
    <glyph glyph-name="Amacron" unicode="&#x100;" 
 />
    <glyph glyph-name="amacron" unicode="&#x101;" 
 />
    <glyph glyph-name="Abreve" unicode="&#x102;" 
 />
    <glyph glyph-name="abreve" unicode="&#x103;" 
 />
    <glyph glyph-name="Aogonek" unicode="&#x104;" 
 />
    <glyph glyph-name="aogonek" unicode="&#x105;" 
 />
    <glyph glyph-name="Cacute" unicode="&#x106;" 
 />
    <glyph glyph-name="cacute" unicode="&#x107;" 
 />
    <glyph glyph-name="Ccircumflex" unicode="&#x108;" 
 />
    <glyph glyph-name="ccircumflex" unicode="&#x109;" 
 />
    <glyph glyph-name="Cdot" unicode="&#x10a;" 
 />
    <glyph glyph-name="cdot" unicode="&#x10b;" 
 />
    <glyph glyph-name="Ccaron" unicode="&#x10c;" 
 />
    <glyph glyph-name="ccaron" unicode="&#x10d;" 
 />
    <glyph glyph-name="Dcaron" unicode="&#x10e;" 
 />
    <glyph glyph-name="dcaron" unicode="&#x10f;" 
 />
    <glyph glyph-name="Dslash" unicode="&#x110;" 
 />
    <glyph glyph-name="dcroat" unicode="&#x111;" 
 />
    <glyph glyph-name="Emacron" unicode="&#x112;" 
 />
    <glyph glyph-name="emacron" unicode="&#x113;" 
 />
    <glyph glyph-name="Ebreve" unicode="&#x114;" 
 />
    <glyph glyph-name="ebreve" unicode="&#x115;" 
 />
    <glyph glyph-name="Edot" unicode="&#x116;" 
 />
    <glyph glyph-name="edot" unicode="&#x117;" 
 />
    <glyph glyph-name="Eogonek" unicode="&#x118;" 
 />
    <glyph glyph-name="eogonek" unicode="&#x119;" 
 />
    <glyph glyph-name="Ecaron" unicode="&#x11a;" 
 />
    <glyph glyph-name="ecaron" unicode="&#x11b;" 
 />
    <glyph glyph-name="Gcircumflex" unicode="&#x11c;" 
 />
    <glyph glyph-name="gcircumflex" unicode="&#x11d;" 
 />
    <glyph glyph-name="Gbreve" unicode="&#x11e;" 
 />
    <glyph glyph-name="gbreve" unicode="&#x11f;" 
 />
    <glyph glyph-name="Gdot" unicode="&#x120;" 
 />
    <glyph glyph-name="gdot" unicode="&#x121;" 
 />
    <glyph glyph-name="Gcedilla" unicode="&#x122;" 
 />
    <glyph glyph-name="gcedilla" unicode="&#x123;" 
 />
    <glyph glyph-name="Hcircumflex" unicode="&#x124;" 
 />
    <glyph glyph-name="hcircumflex" unicode="&#x125;" 
 />
    <glyph glyph-name="Hbar" unicode="&#x126;" 
 />
    <glyph glyph-name="hbar" unicode="&#x127;" 
 />
    <glyph glyph-name="Itilde" unicode="&#x128;" 
 />
    <glyph glyph-name="itilde" unicode="&#x129;" 
 />
    <glyph glyph-name="Imacron" unicode="&#x12a;" 
 />
    <glyph glyph-name="imacron" unicode="&#x12b;" 
 />
    <glyph glyph-name="Ibreve" unicode="&#x12c;" 
 />
    <glyph glyph-name="ibreve" unicode="&#x12d;" 
 />
    <glyph glyph-name="Iogonek" unicode="&#x12e;" 
 />
    <glyph glyph-name="iogonek" unicode="&#x12f;" 
 />
    <glyph glyph-name="Idotaccent" unicode="&#x130;" 
 />
    <glyph glyph-name="dotlessi" unicode="&#x131;" horiz-adv-x="191" 
d="M152 0h-101v523h101v-523z" />
    <glyph glyph-name="IJ" unicode="&#x132;" 
 />
    <glyph glyph-name="ij" unicode="&#x133;" 
 />
    <glyph glyph-name="Jcircumflex" unicode="&#x134;" 
 />
    <glyph glyph-name="jcircumflex" unicode="&#x135;" 
 />
    <glyph glyph-name="Kcedilla" unicode="&#x136;" 
 />
    <glyph glyph-name="kcedilla" unicode="&#x137;" 
 />
    <glyph glyph-name="kgreenlandic" unicode="&#x138;" 
 />
    <glyph glyph-name="Lacute" unicode="&#x139;" 
 />
    <glyph glyph-name="lacute" unicode="&#x13a;" 
 />
    <glyph glyph-name="Lcedilla" unicode="&#x13b;" 
 />
    <glyph glyph-name="lcedilla" unicode="&#x13c;" 
 />
    <glyph glyph-name="Lcaron" unicode="&#x13d;" 
 />
    <glyph glyph-name="lcaron" unicode="&#x13e;" 
 />
    <glyph glyph-name="Ldot" unicode="&#x13f;" 
 />
    <glyph glyph-name="ldot" unicode="&#x140;" 
 />
    <glyph glyph-name="Lslash" unicode="&#x141;" 
 />
    <glyph glyph-name="lslash" unicode="&#x142;" 
 />
    <glyph glyph-name="Nacute" unicode="&#x143;" 
 />
    <glyph glyph-name="nacute" unicode="&#x144;" 
 />
    <glyph glyph-name="Ncedilla" unicode="&#x145;" 
 />
    <glyph glyph-name="ncedilla" unicode="&#x146;" 
 />
    <glyph glyph-name="Ncaron" unicode="&#x147;" 
 />
    <glyph glyph-name="ncaron" unicode="&#x148;" 
 />
    <glyph glyph-name="napostrophe" unicode="&#x149;" 
 />
    <glyph glyph-name="Eng" unicode="&#x14a;" 
 />
    <glyph glyph-name="eng" unicode="&#x14b;" 
 />
    <glyph glyph-name="Omacron" unicode="&#x14c;" 
 />
    <glyph glyph-name="omacron" unicode="&#x14d;" 
 />
    <glyph glyph-name="Obreve" unicode="&#x14e;" 
 />
    <glyph glyph-name="obreve" unicode="&#x14f;" 
 />
    <glyph glyph-name="Odblacute" unicode="&#x150;" 
 />
    <glyph glyph-name="odblacute" unicode="&#x151;" 
 />
    <glyph glyph-name="OE" unicode="&#x152;" horiz-adv-x="672" 
d="M622 0h-439q-75 0 -102 41q-20 31 -20 112v356q0 80 21 111q25 41 101 41h439v-56h-183v-246h93v-55h-93v-249h183v-55zM338 123v416q0 67 -60 67h-54q-63 0 -63 -101v-348q0 -102 63 -102h54q60 0 60 68z" />
    <glyph glyph-name="oe" unicode="&#x153;" horiz-adv-x="705" 
d="M688 211h-265v-75q0 -79 62 -79h185v-56h-226q-11 0 -33.5 2.5t-33.5 2.5q-13 0 -38 -3t-38 -3h-124q-77 0 -98 19q-24 21 -24 96v247q0 75 24 96q21 19 98 19h124q13 0 38.5 -3.5t38.5 -3.5q11 0 33 4t33 4h122q76 0 99 -20t23 -95v-152zM592 267v60q0 95 -54 95h-53
q-62 0 -62 -82v-73h169zM322 136v200q0 86 -62 86h-42q-41 0 -55 -38q-8 -22 -8 -72v-146q0 -50 8 -73q14 -38 55 -38h42q62 0 62 81z" />
    <glyph glyph-name="Racute" unicode="&#x154;" 
 />
    <glyph glyph-name="racute" unicode="&#x155;" 
 />
    <glyph glyph-name="Rcedilla" unicode="&#x156;" 
 />
    <glyph glyph-name="rcedilla" unicode="&#x157;" 
 />
    <glyph glyph-name="Rcaron" unicode="&#x158;" 
 />
    <glyph glyph-name="rcaron" unicode="&#x159;" 
 />
    <glyph glyph-name="Sacute" unicode="&#x15a;" 
 />
    <glyph glyph-name="sacute" unicode="&#x15b;" 
 />
    <glyph glyph-name="Scircumflex" unicode="&#x15c;" 
 />
    <glyph glyph-name="scircumflex" unicode="&#x15d;" 
 />
    <glyph glyph-name="Scedilla" unicode="&#x15e;" 
 />
    <glyph glyph-name="scedilla" unicode="&#x15f;" 
 />
    <glyph glyph-name="Scaron" unicode="&#x160;" 
 />
    <glyph glyph-name="scaron" unicode="&#x161;" 
 />
    <glyph glyph-name="Tcedilla" unicode="&#x162;" 
 />
    <glyph glyph-name="tcedilla" unicode="&#x163;" 
 />
    <glyph glyph-name="Tcaron" unicode="&#x164;" 
 />
    <glyph glyph-name="tcaron" unicode="&#x165;" 
 />
    <glyph glyph-name="Tbar" unicode="&#x166;" 
 />
    <glyph glyph-name="tbar" unicode="&#x167;" 
 />
    <glyph glyph-name="Utilde" unicode="&#x168;" 
 />
    <glyph glyph-name="utilde" unicode="&#x169;" 
 />
    <glyph glyph-name="Umacron" unicode="&#x16a;" 
 />
    <glyph glyph-name="umacron" unicode="&#x16b;" 
 />
    <glyph glyph-name="Ubreve" unicode="&#x16c;" 
 />
    <glyph glyph-name="ubreve" unicode="&#x16d;" 
 />
    <glyph glyph-name="Uring" unicode="&#x16e;" 
 />
    <glyph glyph-name="uring" unicode="&#x16f;" 
 />
    <glyph glyph-name="Udblacute" unicode="&#x170;" 
 />
    <glyph glyph-name="udblacute" unicode="&#x171;" 
 />
    <glyph glyph-name="Uogonek" unicode="&#x172;" 
 />
    <glyph glyph-name="uogonek" unicode="&#x173;" 
 />
    <glyph glyph-name="Wcircumflex" unicode="&#x174;" 
 />
    <glyph glyph-name="wcircumflex" unicode="&#x175;" 
 />
    <glyph glyph-name="Ycircumflex" unicode="&#x176;" 
 />
    <glyph glyph-name="ycircumflex" unicode="&#x177;" 
 />
    <glyph glyph-name="Ydieresis" unicode="&#x178;" horiz-adv-x="431" 
d="M418 661l-142 -344v-317h-100l-1 319l-136 342h106l84 -263l83 263h106zM344 745q0 -26 -48 -26t-48 26q0 25 48 25t48 -25zM239 745q0 -26 -48 -26q-47 0 -47 26q0 25 47 25q48 0 48 -25z" />
    <glyph glyph-name="Zacute" unicode="&#x179;" 
 />
    <glyph glyph-name="zacute" unicode="&#x17a;" 
 />
    <glyph glyph-name="Zdot" unicode="&#x17b;" 
 />
    <glyph glyph-name="zdot" unicode="&#x17c;" 
 />
    <glyph glyph-name="Zcaron" unicode="&#x17d;" 
 />
    <glyph glyph-name="zcaron" unicode="&#x17e;" 
 />
    <glyph glyph-name="longs" unicode="&#x17f;" 
 />
    <glyph glyph-name="glyph318" 
 />
    <glyph glyph-name="florin" unicode="&#x192;" 
 />
    <glyph glyph-name="Aringacute" unicode="&#x1fa;" 
 />
    <glyph glyph-name="aringacute" unicode="&#x1fb;" 
 />
    <glyph glyph-name="AEacute" unicode="&#x1fc;" 
 />
    <glyph glyph-name="aeacute" unicode="&#x1fd;" 
 />
    <glyph glyph-name="Oslashacute" unicode="&#x1fe;" 
 />
    <glyph glyph-name="oslashacute" unicode="&#x1ff;" 
 />
    <glyph glyph-name="circumflex" unicode="&#x2c6;" horiz-adv-x="256" 
d="M241 559h-46l-70 36l-69 -36h-46l74 52h83z" />
    <glyph glyph-name="caron" unicode="&#x2c7;" 
 />
    <glyph glyph-name="macron" unicode="&#x2c9;" 
 />
    <glyph glyph-name="breve" unicode="&#x2d8;" 
 />
    <glyph glyph-name="dotaccent" unicode="&#x2d9;" 
 />
    <glyph glyph-name="ring" unicode="&#x2da;" horiz-adv-x="205" 
d="M195 578q0 -26 -30 -42q-24 -12 -53 -12t-53 12q-30 16 -30 42t30 41q24 13 53 13q28 0 53 -13q30 -15 30 -41zM139 583q0 45 -27 45t-27 -43v-14q0 -43 27 -43t27 45v10z" />
    <glyph glyph-name="ogonek" unicode="&#x2db;" 
 />
    <glyph glyph-name="tilde" unicode="&#x2dc;" horiz-adv-x="282" 
d="M253 589q-21 -44 -72 -44q-34 0 -85 29q-7 -9 -12 -28h-57q19 43 71 43q32 0 86 -29q7 9 12 29h57z" />
    <glyph glyph-name="hungarumlaut" unicode="&#x2dd;" 
 />
    <glyph glyph-name="glyph335" 
 />
    <glyph glyph-name="tonos" unicode="&#x384;" 
 />
    <glyph glyph-name="dieresistonos" unicode="&#x385;" 
 />
    <glyph glyph-name="Alphatonos" unicode="&#x386;" 
 />
    <glyph glyph-name="anoteleia" unicode="&#x387;" 
 />
    <glyph glyph-name="Epsilontonos" unicode="&#x388;" 
 />
    <glyph glyph-name="Etatonos" unicode="&#x389;" 
 />
    <glyph glyph-name="Iotatonos" unicode="&#x38a;" 
 />
    <glyph glyph-name="Omicrontonos" unicode="&#x38c;" 
 />
    <glyph glyph-name="Upsilontonos" unicode="&#x38e;" 
 />
    <glyph glyph-name="Omegatonos" unicode="&#x38f;" 
 />
    <glyph glyph-name="iotadieresistonos" unicode="&#x390;" 
 />
    <glyph glyph-name="Alpha" unicode="&#x391;" 
 />
    <glyph glyph-name="Beta" unicode="&#x392;" 
 />
    <glyph glyph-name="Gamma" unicode="&#x393;" 
 />
    <glyph glyph-name="Delta" unicode="&#x394;" 
 />
    <glyph glyph-name="Delta" unicode="&#x2206;" 
 />
    <glyph glyph-name="Epsilon" unicode="&#x395;" 
 />
    <glyph glyph-name="Zeta" unicode="&#x396;" 
 />
    <glyph glyph-name="Eta" unicode="&#x397;" 
 />
    <glyph glyph-name="Theta" unicode="&#x398;" 
 />
    <glyph glyph-name="Theta" unicode="&#x472;" 
 />
    <glyph glyph-name="Iota" unicode="&#x399;" 
 />
    <glyph glyph-name="Kappa" unicode="&#x39a;" 
 />
    <glyph glyph-name="Lambda" unicode="&#x39b;" 
 />
    <glyph glyph-name="Mu" unicode="&#x39c;" 
 />
    <glyph glyph-name="Nu" unicode="&#x39d;" 
 />
    <glyph glyph-name="Xi" unicode="&#x39e;" 
 />
    <glyph glyph-name="Omicron" unicode="&#x39f;" 
 />
    <glyph glyph-name="Pi" unicode="&#x3a0;" 
 />
    <glyph glyph-name="Rho" unicode="&#x3a1;" 
 />
    <glyph glyph-name="Sigma" unicode="&#x3a3;" 
 />
    <glyph glyph-name="Tau" unicode="&#x3a4;" 
 />
    <glyph glyph-name="Upsilon" unicode="&#x3a5;" 
 />
    <glyph glyph-name="Phi" unicode="&#x3a6;" 
 />
    <glyph glyph-name="Chi" unicode="&#x3a7;" 
 />
    <glyph glyph-name="Psi" unicode="&#x3a8;" 
 />
    <glyph glyph-name="Psi" unicode="&#x470;" 
 />
    <glyph glyph-name="Omega" unicode="&#x3a9;" 
 />
    <glyph glyph-name="Omega" unicode="&#x2126;" 
 />
    <glyph glyph-name="Iotadieresis" unicode="&#x3aa;" 
 />
    <glyph glyph-name="Upsilondieresis" unicode="&#x3ab;" 
 />
    <glyph glyph-name="alphatonos" unicode="&#x3ac;" 
 />
    <glyph glyph-name="epsilontonos" unicode="&#x3ad;" 
 />
    <glyph glyph-name="etatonos" unicode="&#x3ae;" 
 />
    <glyph glyph-name="iotatonos" unicode="&#x3af;" 
 />
    <glyph glyph-name="upsilondieresistonos" unicode="&#x3b0;" 
 />
    <glyph glyph-name="alpha" unicode="&#x3b1;" 
 />
    <glyph glyph-name="beta" unicode="&#x3b2;" 
 />
    <glyph glyph-name="gamma" unicode="&#x3b3;" 
 />
    <glyph glyph-name="delta" unicode="&#x3b4;" 
 />
    <glyph glyph-name="epsilon" unicode="&#x3b5;" 
 />
    <glyph glyph-name="zeta" unicode="&#x3b6;" 
 />
    <glyph glyph-name="eta" unicode="&#x3b7;" 
 />
    <glyph glyph-name="theta" unicode="&#x3b8;" 
 />
    <glyph glyph-name="theta" unicode="&#x473;" 
 />
    <glyph glyph-name="iota" unicode="&#x3b9;" 
 />
    <glyph glyph-name="kappa" unicode="&#x3ba;" 
 />
    <glyph glyph-name="lambda" unicode="&#x3bb;" 
 />
    <glyph glyph-name="mu" unicode="&#x3bc;" 
 />
    <glyph glyph-name="nu" unicode="&#x3bd;" 
 />
    <glyph glyph-name="xi" unicode="&#x3be;" 
 />
    <glyph glyph-name="omicron" unicode="&#x3bf;" 
 />
    <glyph glyph-name="pi" unicode="&#x3c0;" 
 />
    <glyph glyph-name="rho" unicode="&#x3c1;" 
 />
    <glyph glyph-name="sigma1" unicode="&#x3c2;" 
 />
    <glyph glyph-name="sigma" unicode="&#x3c3;" 
 />
    <glyph glyph-name="tau" unicode="&#x3c4;" 
 />
    <glyph glyph-name="upsilon" unicode="&#x3c5;" 
 />
    <glyph glyph-name="phi" unicode="&#x3c6;" 
 />
    <glyph glyph-name="chi" unicode="&#x3c7;" 
 />
    <glyph glyph-name="psi" unicode="&#x3c8;" 
 />
    <glyph glyph-name="psi" unicode="&#x471;" 
 />
    <glyph glyph-name="omega" unicode="&#x3c9;" 
 />
    <glyph glyph-name="iotadieresis" unicode="&#x3ca;" 
 />
    <glyph glyph-name="upsilondieresis" unicode="&#x3cb;" 
 />
    <glyph glyph-name="omicrontonos" unicode="&#x3cc;" 
 />
    <glyph glyph-name="upsilontonos" unicode="&#x3cd;" 
 />
    <glyph glyph-name="omegatonos" unicode="&#x3ce;" 
 />
    <glyph glyph-name="glyph408" 
 />
    <glyph glyph-name="afii10023" unicode="&#x401;" 
 />
    <glyph glyph-name="afii10051" unicode="&#x402;" 
 />
    <glyph glyph-name="afii10052" unicode="&#x403;" 
 />
    <glyph glyph-name="afii10053" unicode="&#x404;" 
 />
    <glyph glyph-name="afii10054" unicode="&#x405;" 
 />
    <glyph glyph-name="afii10055" unicode="&#x406;" 
 />
    <glyph glyph-name="afii10056" unicode="&#x407;" 
 />
    <glyph glyph-name="afii10057" unicode="&#x408;" 
 />
    <glyph glyph-name="afii10058" unicode="&#x409;" 
 />
    <glyph glyph-name="afii10059" unicode="&#x40a;" 
 />
    <glyph glyph-name="afii10060" unicode="&#x40b;" 
 />
    <glyph glyph-name="afii10061" unicode="&#x40c;" 
 />
    <glyph glyph-name="afii10062" unicode="&#x40e;" 
 />
    <glyph glyph-name="afii10145" unicode="&#x40f;" 
 />
    <glyph glyph-name="afii10017" unicode="&#x410;" 
 />
    <glyph glyph-name="afii10018" unicode="&#x411;" 
 />
    <glyph glyph-name="afii10019" unicode="&#x412;" 
 />
    <glyph glyph-name="afii10020" unicode="&#x413;" 
 />
    <glyph glyph-name="afii10021" unicode="&#x414;" 
 />
    <glyph glyph-name="afii10022" unicode="&#x415;" 
 />
    <glyph glyph-name="afii10024" unicode="&#x416;" 
 />
    <glyph glyph-name="afii10025" unicode="&#x417;" 
 />
    <glyph glyph-name="afii10026" unicode="&#x418;" 
 />
    <glyph glyph-name="afii10027" unicode="&#x419;" 
 />
    <glyph glyph-name="afii10028" unicode="&#x41a;" 
 />
    <glyph glyph-name="afii10029" unicode="&#x41b;" 
 />
    <glyph glyph-name="afii10030" unicode="&#x41c;" 
 />
    <glyph glyph-name="afii10031" unicode="&#x41d;" 
 />
    <glyph glyph-name="afii10032" unicode="&#x41e;" 
 />
    <glyph glyph-name="afii10033" unicode="&#x41f;" 
 />
    <glyph glyph-name="afii10034" unicode="&#x420;" 
 />
    <glyph glyph-name="afii10035" unicode="&#x421;" 
 />
    <glyph glyph-name="afii10036" unicode="&#x422;" 
 />
    <glyph glyph-name="afii10037" unicode="&#x423;" 
 />
    <glyph glyph-name="afii10038" unicode="&#x424;" 
 />
    <glyph glyph-name="afii10039" unicode="&#x425;" 
 />
    <glyph glyph-name="afii10040" unicode="&#x426;" 
 />
    <glyph glyph-name="afii10041" unicode="&#x427;" 
 />
    <glyph glyph-name="afii10042" unicode="&#x428;" 
 />
    <glyph glyph-name="afii10043" unicode="&#x429;" 
 />
    <glyph glyph-name="afii10044" unicode="&#x42a;" 
 />
    <glyph glyph-name="afii10045" unicode="&#x42b;" 
 />
    <glyph glyph-name="afii10046" unicode="&#x42c;" 
 />
    <glyph glyph-name="afii10047" unicode="&#x42d;" 
 />
    <glyph glyph-name="afii10048" unicode="&#x42e;" 
 />
    <glyph glyph-name="afii10049" unicode="&#x42f;" 
 />
    <glyph glyph-name="afii10065" unicode="&#x430;" 
 />
    <glyph glyph-name="afii10066" unicode="&#x431;" 
 />
    <glyph glyph-name="afii10067" unicode="&#x432;" 
 />
    <glyph glyph-name="afii10068" unicode="&#x433;" 
 />
    <glyph glyph-name="afii10069" unicode="&#x434;" 
 />
    <glyph glyph-name="afii10070" unicode="&#x435;" 
 />
    <glyph glyph-name="afii10072" unicode="&#x436;" 
 />
    <glyph glyph-name="afii10073" unicode="&#x437;" 
 />
    <glyph glyph-name="afii10074" unicode="&#x438;" 
 />
    <glyph glyph-name="afii10075" unicode="&#x439;" 
 />
    <glyph glyph-name="afii10076" unicode="&#x43a;" 
 />
    <glyph glyph-name="afii10077" unicode="&#x43b;" 
 />
    <glyph glyph-name="afii10078" unicode="&#x43c;" 
 />
    <glyph glyph-name="afii10079" unicode="&#x43d;" 
 />
    <glyph glyph-name="afii10080" unicode="&#x43e;" 
 />
    <glyph glyph-name="afii10081" unicode="&#x43f;" 
 />
    <glyph glyph-name="afii10082" unicode="&#x440;" 
 />
    <glyph glyph-name="afii10083" unicode="&#x441;" 
 />
    <glyph glyph-name="afii10084" unicode="&#x442;" 
 />
    <glyph glyph-name="afii10085" unicode="&#x443;" 
 />
    <glyph glyph-name="afii10086" unicode="&#x444;" 
 />
    <glyph glyph-name="afii10087" unicode="&#x445;" 
 />
    <glyph glyph-name="afii10088" unicode="&#x446;" 
 />
    <glyph glyph-name="afii10089" unicode="&#x447;" 
 />
    <glyph glyph-name="afii10090" unicode="&#x448;" 
 />
    <glyph glyph-name="afii10091" unicode="&#x449;" 
 />
    <glyph glyph-name="afii10092" unicode="&#x44a;" 
 />
    <glyph glyph-name="afii10093" unicode="&#x44b;" 
 />
    <glyph glyph-name="afii10094" unicode="&#x44c;" 
 />
    <glyph glyph-name="afii10095" unicode="&#x44d;" 
 />
    <glyph glyph-name="afii10096" unicode="&#x44e;" 
 />
    <glyph glyph-name="afii10097" unicode="&#x44f;" 
 />
    <glyph glyph-name="afii10071" unicode="&#x451;" 
 />
    <glyph glyph-name="afii10099" unicode="&#x452;" 
 />
    <glyph glyph-name="afii10100" unicode="&#x453;" 
 />
    <glyph glyph-name="afii10101" unicode="&#x454;" 
 />
    <glyph glyph-name="afii10102" unicode="&#x455;" 
 />
    <glyph glyph-name="afii10103" unicode="&#x456;" 
 />
    <glyph glyph-name="afii10104" unicode="&#x457;" 
 />
    <glyph glyph-name="afii10105" unicode="&#x458;" 
 />
    <glyph glyph-name="afii10106" unicode="&#x459;" 
 />
    <glyph glyph-name="afii10107" unicode="&#x45a;" 
 />
    <glyph glyph-name="afii10108" unicode="&#x45b;" 
 />
    <glyph glyph-name="afii10109" unicode="&#x45c;" 
 />
    <glyph glyph-name="afii10110" unicode="&#x45e;" 
 />
    <glyph glyph-name="afii10193" unicode="&#x45f;" 
 />
    <glyph glyph-name="afii10050" unicode="&#x490;" 
 />
    <glyph glyph-name="afii10098" unicode="&#x491;" 
 />
    <glyph glyph-name="glyph503" 
 />
    <glyph glyph-name="Wgrave" unicode="&#x1e80;" 
 />
    <glyph glyph-name="wgrave" unicode="&#x1e81;" 
 />
    <glyph glyph-name="Wacute" unicode="&#x1e82;" 
 />
    <glyph glyph-name="wacute" unicode="&#x1e83;" 
 />
    <glyph glyph-name="Wdieresis" unicode="&#x1e84;" 
 />
    <glyph glyph-name="wdieresis" unicode="&#x1e85;" 
 />
    <glyph glyph-name="Ygrave" unicode="&#x1ef2;" 
 />
    <glyph glyph-name="ygrave" unicode="&#x1ef3;" 
 />
    <glyph glyph-name="glyph512" 
 />
    <glyph glyph-name="endash" unicode="&#x2013;" 
 />
    <glyph glyph-name="emdash" unicode="&#x2014;" 
 />
    <glyph glyph-name="afii00208" unicode="&#x2015;" 
 />
    <glyph glyph-name="underscoredbl" unicode="&#x2017;" 
 />
    <glyph glyph-name="quoteleft" unicode="&#x2018;" horiz-adv-x="148" 
d="M31 578l27 200h56l6 -200h-89z" />
    <glyph glyph-name="quoteright" unicode="&#x2019;" horiz-adv-x="129" 
d="M108 791l-27 -200h-56l-5 200h88z" />
    <glyph glyph-name="quotesinglbase" unicode="&#x201a;" 
 />
    <glyph glyph-name="quotereversed" unicode="&#x201b;" 
 />
    <glyph glyph-name="quotedblleft" unicode="&#x201c;" horiz-adv-x="260" 
d="M8 589l26 200h57l5 -200h-88zM148 589l27 200h56l5 -200h-88z" />
    <glyph glyph-name="quotedblright" unicode="&#x201d;" horiz-adv-x="255" 
d="M247 793l-27 -199h-56l-5 199h88zM107 793l-27 -199h-57l-5 199h89z" />
    <glyph glyph-name="quotedblbase" unicode="&#x201e;" 
 />
    <glyph glyph-name="glyph524" 
 />
    <glyph glyph-name="dagger" unicode="&#x2020;" 
 />
    <glyph glyph-name="daggerdbl" unicode="&#x2021;" 
 />
    <glyph glyph-name="bullet" unicode="&#x2022;" horiz-adv-x="516" 
d="M481 194h-457v483h457v-483z" />
    <glyph glyph-name="ellipsis" unicode="&#x2026;" horiz-adv-x="518" 
d="M121 1h-100v73h100v-73zM305 1h-100v73h100v-73zM489 1h-100v73h100v-73z" />
    </font>
</defs>
</svg>
